<?xml version="1.0" encoding="UTF-8" standalone="no"?>
<!-- Created with Inkscape (http://www.inkscape.org/) -->

<svg
   xmlns:dc="http://purl.org/dc/elements/1.1/"
   xmlns:cc="http://creativecommons.org/ns#"
   xmlns:rdf="http://www.w3.org/1999/02/22-rdf-syntax-ns#"
   xmlns:svg="http://www.w3.org/2000/svg"
   xmlns="http://www.w3.org/2000/svg"
   xmlns:sodipodi="http://sodipodi.sourceforge.net/DTD/sodipodi-0.dtd"
   xmlns:inkscape="http://www.inkscape.org/namespaces/inkscape"
   width="297mm"
   height="210mm"
   viewBox="0 0 297 210"
   version="1.1"
   id="svg8"
   inkscape:version="0.92.3 (2405546, 2018-03-11)"
   sodipodi:docname="GoTalkTemplate-4 Locations.svg">
  <defs
     id="defs2" />
  <sodipodi:namedview
     id="base"
     pagecolor="#ffffff"
     bordercolor="#666666"
     borderopacity="1.0"
     inkscape:pageopacity="0.0"
     inkscape:pageshadow="2"
     inkscape:zoom="0.49497475"
     inkscape:cx="108.07893"
     inkscape:cy="242.05898"
     inkscape:document-units="mm"
     inkscape:current-layer="layer1"
     showgrid="false"
     inkscape:window-width="1920"
     inkscape:window-height="1001"
     inkscape:window-x="-9"
     inkscape:window-y="-9"
     inkscape:window-maximized="1" />
  <metadata
     id="metadata5">
    <rdf:RDF>
      <cc:Work
         rdf:about="">
        <dc:format>image/svg+xml</dc:format>
        <dc:type
           rdf:resource="http://purl.org/dc/dcmitype/StillImage" />
        <dc:title></dc:title>
      </cc:Work>
    </rdf:RDF>
  </metadata>
  <g
     inkscape:label="Layer 1"
     inkscape:groupmode="layer"
     id="layer1"
     transform="translate(0,-87)">
    <g
       id="g4779"
       transform="matrix(0.26458333,0,0,0.26458333,58.494518,123.03162)"
       style="stroke-width:0.37795275;stroke-miterlimit:4;stroke-dasharray:none">
      <path
         inkscape:connector-curvature="0"
         id="path4747"
         style="fill:none;stroke:#ff0000;stroke-width:0.37795275;stroke-linecap:butt;stroke-linejoin:miter;stroke-miterlimit:4;stroke-dasharray:none"
         d="m 38.7768,37.904 v 417.6 q 0,7.2 7.2,7.2 h 552.6 q 7.2,0 7.2,-7.2 v -417.6 q 0,-7.2 -7.2,-7.2 h -552.6 q -7.2,0 -7.2,7.2 z" />
      <path
         inkscape:connector-curvature="0"
         id="path4749"
         style="fill:none;stroke:#ff0000;stroke-width:0.37795275;stroke-linecap:butt;stroke-linejoin:miter;stroke-miterlimit:4;stroke-dasharray:none"
         d="m 371.7768,120.704 v 36 q 0,18 18,18 h 108 q 18,0 18,-18 v -36 q 0,-18 -18,-18 h -108 q -18,0 -18,18 z" />
      <path
         inkscape:connector-curvature="0"
         id="path4751"
         style="fill:none;stroke:#ff0000;stroke-width:0.37795275;stroke-linecap:butt;stroke-linejoin:miter;stroke-miterlimit:4;stroke-dasharray:none"
         d="m 128.7768,120.704 v 36 q 0,18 18,18 h 108 q 18,0 18,-18 v -36 q 0,-18 -18,-18 h -108 q -18,0 -18,18 z" />
      <path
         inkscape:connector-curvature="0"
         id="path4753"
         style="fill:none;stroke:#ff0000;stroke-width:0.37795275;stroke-linecap:butt;stroke-linejoin:miter;stroke-miterlimit:4;stroke-dasharray:none"
         d="m 128.7768,282.704 v 36 q 0,18 18,18 h 108 q 18,0 18,-18 v -36 q 0,-18 -18,-18 h -108 q -18,0 -18,18 z" />
      <path
         inkscape:connector-curvature="0"
         id="path4755"
         style="fill:none;stroke:#ff0000;stroke-width:0.37795275;stroke-linecap:butt;stroke-linejoin:miter;stroke-miterlimit:4;stroke-dasharray:none"
         d="m 371.7768,282.704 v 36 q 0,18 18,18 h 108 q 18,0 18,-18 v -36 q 0,-18 -18,-18 h -108 q -18,0 -18,18 z" />
      <path
         inkscape:connector-curvature="0"
         id="path4757"
         style="fill:none;stroke:#ff0000;stroke-width:0.37795275;stroke-linecap:butt;stroke-linejoin:miter;stroke-miterlimit:4;stroke-dasharray:none"
         d="m 74.7768,403.16 a 18,18 0 0 1 18,18 18,18 0 1 1 -18,-18 z" />
      <path
         inkscape:connector-curvature="0"
         id="path4759"
         style="fill:none;stroke:#ff0000;stroke-width:0.37795275;stroke-linecap:butt;stroke-linejoin:miter;stroke-miterlimit:4;stroke-dasharray:none"
         d="m 114.3768,410.36 v 21.6 q 0,7.2 7.2,7.2 h 21.6 q 7.2,0 7.2,-7.2 v -21.6 q 0,-7.2 -7.2,-7.2 h -21.6 q -7.2,0 -7.2,7.2 z" />
      <path
         inkscape:connector-curvature="0"
         id="path4761"
         style="fill:none;stroke:#ff0000;stroke-width:0.37795275;stroke-linecap:butt;stroke-linejoin:miter;stroke-miterlimit:4;stroke-dasharray:none"
         d="m 569.7768,403.16 a 18,18 0 0 1 18,18 18,18 0 1 1 -18,-18 z" />
    </g>
  </g>
</svg>
