<?xml version="1.0" encoding="UTF-8" standalone="no"?>
<!-- Created with Inkscape (http://www.inkscape.org/) -->

<svg
   xmlns:dc="http://purl.org/dc/elements/1.1/"
   xmlns:cc="http://creativecommons.org/ns#"
   xmlns:rdf="http://www.w3.org/1999/02/22-rdf-syntax-ns#"
   xmlns:svg="http://www.w3.org/2000/svg"
   xmlns="http://www.w3.org/2000/svg"
   xmlns:sodipodi="http://sodipodi.sourceforge.net/DTD/sodipodi-0.dtd"
   xmlns:inkscape="http://www.inkscape.org/namespaces/inkscape"
   width="297mm"
   height="210mm"
   viewBox="0 0 297 210"
   version="1.1"
   id="svg40851"
   inkscape:version="0.92.3 (2405546, 2018-03-11)"
   sodipodi:docname="001.svg">
  <defs
     id="defs40845">
    <marker
       style="overflow:visible"
       refY="0"
       refX="0"
       orient="auto"
       id="DistanceX">
      <path
         id="path45330"
         style="stroke:#000000;stroke-width:0.5"
         d="M 3,-3 -3,3 M 0,-5 V 5"
         inkscape:connector-curvature="0" />
    </marker>
    <pattern
       y="0"
       x="0"
       width="8"
       patternUnits="userSpaceOnUse"
       id="Hatch"
       height="8">
      <path
         id="path45333"
         stroke-width="0.25"
         stroke="#000000"
         linecap="square"
         d="M8 4 l-4,4" />
      <path
         id="path45335"
         stroke-width="0.25"
         stroke="#000000"
         linecap="square"
         d="M6 2 l-4,4" />
      <path
         id="path45337"
         stroke-width="0.25"
         stroke="#000000"
         linecap="square"
         d="M4 0 l-4,4" />
    </pattern>
    <symbol
       id="*MODEL_SPACE" />
    <symbol
       id="*PAPER_SPACE" />
    <marker
       style="overflow:visible"
       refY="0"
       refX="0"
       orient="auto"
       id="DistanceX-7">
      <path
         id="path45371"
         style="stroke:#000000;stroke-width:0.5"
         d="M 3,-3 -3,3 M 0,-5 V 5"
         inkscape:connector-curvature="0" />
    </marker>
    <pattern
       y="0"
       x="0"
       width="8"
       patternUnits="userSpaceOnUse"
       id="Hatch-9"
       height="8">
      <path
         id="path45374"
         stroke-width="0.25"
         stroke="#000000"
         linecap="square"
         d="M8 4 l-4,4" />
      <path
         id="path45376"
         stroke-width="0.25"
         stroke="#000000"
         linecap="square"
         d="M6 2 l-4,4" />
      <path
         id="path45378"
         stroke-width="0.25"
         stroke="#000000"
         linecap="square"
         d="M4 0 l-4,4" />
    </pattern>
    <symbol
       id="*MODEL_SPACE-5" />
    <symbol
       id="*PAPER_SPACE-9" />
  </defs>
  <sodipodi:namedview
     id="base"
     pagecolor="#ffffff"
     bordercolor="#666666"
     borderopacity="1.0"
     inkscape:pageopacity="0.0"
     inkscape:pageshadow="2"
     inkscape:zoom="0.7"
     inkscape:cx="899.6727"
     inkscape:cy="394.56082"
     inkscape:document-units="mm"
     inkscape:current-layer="layer1"
     showgrid="false"
     inkscape:window-width="1920"
     inkscape:window-height="1001"
     inkscape:window-x="-9"
     inkscape:window-y="-9"
     inkscape:window-maximized="1" />
  <metadata
     id="metadata40848">
    <rdf:RDF>
      <cc:Work
         rdf:about="">
        <dc:format>image/svg+xml</dc:format>
        <dc:type
           rdf:resource="http://purl.org/dc/dcmitype/StillImage" />
        <dc:title></dc:title>
      </cc:Work>
    </rdf:RDF>
  </metadata>
  <g
     inkscape:label="Layer 1"
     inkscape:groupmode="layer"
     id="layer1"
     transform="translate(0,-87)">
    <g
       id="g45344"
       inkscape:label="0"
       transform="scale(0.26458333)" />
    <path
       inkscape:connector-curvature="0"
       d="m 35.453401,115.4585 v 155.68184 a 11.7475,11.7475 0 0 0 11.7475,11.7475 H 258.0209 a 11.7475,11.7475 0 0 0 11.7475,-11.7475 V 115.4585 A 11.7475,11.7475 0 0 0 258.0209,103.71101 H 47.200901 a 11.7475,11.7475 0 0 0 -11.7475,11.74749 z"
       style="fill:none;stroke:#ff0000;stroke-width:0.1;stroke-miterlimit:4;stroke-dasharray:none"
       id="path45399" />
    <path
       inkscape:connector-curvature="0"
       d="m 199.7279,250.82034 a 2.54,2.54 0 0 0 -2.54,2.54 v 7.62 a 2.54,2.54 0 0 0 2.54,2.54 h 7.62 a 2.54,2.54 0 0 0 2.54,-2.54 v -7.62 a 2.54,2.54 0 0 0 -2.54,-2.54 z"
       style="fill:none;stroke:#ff0000;stroke-width:0.1;stroke-miterlimit:4;stroke-dasharray:none"
       id="path45403" />
    <path
       inkscape:connector-curvature="0"
       d="m 123.7819,151.12534 a 16.891,16.891 0 1 0 -33.781999,0 16.891,16.891 0 1 0 33.781999,0 z"
       style="fill:none;stroke:#ff0000;stroke-width:0.1;stroke-miterlimit:4;stroke-dasharray:none"
       id="path45405" />
    <path
       inkscape:connector-curvature="0"
       d="m 223.2229,263.52034 a 2.54,2.54 0 0 0 2.54,-2.54 v -7.62 a 2.54,2.54 0 0 0 -2.54,-2.54 h -7.62 a 2.54,2.54 0 0 0 -2.54,2.54 v 7.62 a 2.54,2.54 0 0 0 2.54,2.54 z"
       style="fill:none;stroke:#ff0000;stroke-width:0.1;stroke-miterlimit:4;stroke-dasharray:none"
       id="path45407" />
    <path
       inkscape:connector-curvature="0"
       d="m 90.253901,260.98034 v -7.62 a 2.54,2.54 0 0 0 -2.54,-2.54 h -7.62 a 2.54,2.54 0 0 0 -2.54,2.54 v 7.62 a 2.54,2.54 0 0 0 2.54,2.54 h 7.62 a 2.54,2.54 0 0 0 2.54,-2.54 z"
       style="fill:none;stroke:#ff0000;stroke-width:0.1;stroke-miterlimit:4;stroke-dasharray:none"
       id="path45409" />
    <path
       inkscape:connector-curvature="0"
       d="m 95.968901,250.82034 a 2.54,2.54 0 0 0 -2.54,2.54 v 7.62 a 2.54,2.54 0 0 0 2.54,2.54 h 7.619999 a 2.54,2.54 0 0 0 2.54,-2.54 v -7.62 a 2.54,2.54 0 0 0 -2.54,-2.54 z"
       style="fill:none;stroke:#ff0000;stroke-width:0.1;stroke-miterlimit:4;stroke-dasharray:none"
       id="path45411" />
    <path
       inkscape:connector-curvature="0"
       d="m 215.8569,211.45034 a 16.891,16.891 0 1 0 -33.782,0 16.891,16.891 0 1 0 33.782,0 z"
       style="fill:none;stroke:#ff0000;stroke-width:0.1;stroke-miterlimit:4;stroke-dasharray:none"
       id="path45413" />
    <path
       inkscape:connector-curvature="0"
       d="m 215.8569,151.12534 a 16.891,16.891 0 1 0 -33.782,0 16.891,16.891 0 1 0 33.782,0 z"
       style="fill:none;stroke:#ff0000;stroke-width:0.1;stroke-miterlimit:4;stroke-dasharray:none"
       id="path45415" />
    <path
       inkscape:connector-curvature="0"
       d="m 247.73649,257.17034 a 7.8739999,7.8739999 0 1 0 -15.74799,0 7.8739999,7.8739999 0 1 0 15.74799,0 z"
       style="fill:none;stroke:#ff0000;stroke-width:0.1;stroke-miterlimit:4;stroke-dasharray:none"
       id="path45417" />
    <path
       inkscape:connector-curvature="0"
       d="m 123.7819,211.45034 a 16.891,16.891 0 1 0 -33.781999,0 16.891,16.891 0 1 0 33.781999,0 z"
       style="fill:none;stroke:#ff0000;stroke-width:0.1;stroke-miterlimit:4;stroke-dasharray:none"
       id="path45419" />
    <path
       inkscape:connector-curvature="0"
       d="m 72.131628,257.17034 a 7.8739999,7.8739999 0 1 0 -15.748,0 7.8739999,7.8739999 0 1 0 15.748,0 z"
       style="fill:none;stroke:#ff0000;stroke-width:0.1;stroke-miterlimit:4;stroke-dasharray:none"
       id="path45421" />
    <g
       id="g1292"
       transform="matrix(0,-0.13257328,0.13501715,0,266.59247,174.07488)"
       inkscape:label="Hershey Text"
       style="stroke:#000080;stroke-width:0.52324188">
      <path
         id="path1248"
         transform="translate(15)"
         style="fill:none;stroke:#000080;stroke-width:0.52324188"
         d="M -11,-5 V 9 m 0,-10 3,-3 2,-1 h 3 l 2,1 1,3 V 9 M 0,-1 3,-4 5,-5 h 3 l 2,1 1,3 V 9"
         inkscape:connector-curvature="0" />
      <path
         id="path1250"
         transform="translate(39)"
         style="fill:none;stroke:#000080;stroke-width:0.52324188"
         d="M 6,-5 V 9 M 6,-2 4,-4 2,-5 h -3 l -2,1 -2,2 -1,3 v 2 l 1,3 2,2 2,1 H 2 L 4,8 6,6"
         inkscape:connector-curvature="0" />
      <path
         id="path1252"
         transform="translate(58)"
         style="fill:none;stroke:#000080;stroke-width:0.52324188"
         d="M -5,-12 V 9 M 5,-5 -5,5 m 4,-4 7,8"
         inkscape:connector-curvature="0" />
      <path
         id="path1254"
         transform="translate(75)"
         style="fill:none;stroke:#000080;stroke-width:0.52324188"
         d="M -6,1 H 6 V -1 L 5,-3 4,-4 2,-5 h -3 l -2,1 -2,2 -1,3 v 2 l 1,3 2,2 2,1 H 2 L 4,8 6,6"
         inkscape:connector-curvature="0" />
      <path
         id="path1256"
         transform="translate(91)"
         style="fill:none;stroke:#000080;stroke-width:0.52324188"
         d="M -3,-5 V 9 m 0,-8 1,-3 2,-2 2,-1 h 3"
         inkscape:connector-curvature="0" />
      <path
         id="path1258"
         transform="translate(105)"
         style="fill:none;stroke:#000080;stroke-width:0.52324188"
         d="M 6,-2 5,-4 2,-5 h -3 l -3,1 -1,2 1,2 2,1 5,1 2,1 1,2 V 6 L 5,8 2,9 H -1 L -4,8 -5,6"
         inkscape:connector-curvature="0" />
      <path
         id="path1260"
         transform="translate(129)"
         style="fill:none;stroke:#000080;stroke-width:0.52324188"
         d="M -11,-5 V 9 m 0,-10 3,-3 2,-1 h 3 l 2,1 1,3 V 9 M 0,-1 3,-4 5,-5 h 3 l 2,1 1,3 V 9"
         inkscape:connector-curvature="0" />
      <path
         id="path1262"
         transform="translate(153)"
         style="fill:none;stroke:#000080;stroke-width:0.52324188"
         d="M 6,-5 V 9 M 6,-2 4,-4 2,-5 h -3 l -2,1 -2,2 -1,3 v 2 l 1,3 2,2 2,1 H 2 L 4,8 6,6"
         inkscape:connector-curvature="0" />
      <path
         id="path1264"
         transform="translate(172)"
         style="fill:none;stroke:#000080;stroke-width:0.52324188"
         d="M -5,-12 V 9 M 5,-5 -5,5 m 4,-4 7,8"
         inkscape:connector-curvature="0" />
      <path
         id="path1266"
         transform="translate(184)"
         style="fill:none;stroke:#000080;stroke-width:0.52324188"
         d="m -1,-12 1,1 1,-1 -1,-1 -1,1 m 1,7 V 9"
         inkscape:connector-curvature="0" />
      <path
         id="path1268"
         transform="translate(197)"
         style="fill:none;stroke:#000080;stroke-width:0.52324188"
         d="M -5,-5 V 9 m 0,-10 3,-3 2,-1 h 3 l 2,1 1,3 V 9"
         inkscape:connector-curvature="0" />
      <path
         id="path1270"
         transform="translate(216)"
         style="fill:none;stroke:#000080;stroke-width:0.52324188"
         d="M 6,-5 V 11 L 5,14 4,15 2,16 H -1 L -3,15 M 6,-2 4,-4 2,-5 h -3 l -2,1 -2,2 -1,3 v 2 l 1,3 2,2 2,1 H 2 L 4,8 6,6"
         inkscape:connector-curvature="0" />
      <path
         id="path1272"
         transform="translate(235)"
         style="fill:none;stroke:#000080;stroke-width:0.52324188"
         d="M 6,-2 4,-4 2,-5 h -3 l -2,1 -2,2 -1,3 v 2 l 1,3 2,2 2,1 H 2 L 4,8 6,6"
         inkscape:connector-curvature="0" />
      <path
         id="path1274"
         transform="translate(253)"
         style="fill:none;stroke:#000080;stroke-width:0.52324188"
         d="M -5,-12 V 9 m 0,-10 3,-3 2,-1 h 3 l 2,1 1,3 V 9"
         inkscape:connector-curvature="0" />
      <path
         id="path1276"
         transform="translate(272)"
         style="fill:none;stroke:#000080;stroke-width:0.52324188"
         d="M 6,-5 V 9 M 6,-2 4,-4 2,-5 h -3 l -2,1 -2,2 -1,3 v 2 l 1,3 2,2 2,1 H 2 L 4,8 6,6"
         inkscape:connector-curvature="0" />
      <path
         id="path1278"
         transform="translate(291)"
         style="fill:none;stroke:#000080;stroke-width:0.52324188"
         d="M -5,-5 V 9 m 0,-10 3,-3 2,-1 h 3 l 2,1 1,3 V 9"
         inkscape:connector-curvature="0" />
      <path
         id="path1280"
         transform="translate(310)"
         style="fill:none;stroke:#000080;stroke-width:0.52324188"
         d="M 6,-5 V 11 L 5,14 4,15 2,16 H -1 L -3,15 M 6,-2 4,-4 2,-5 h -3 l -2,1 -2,2 -1,3 v 2 l 1,3 2,2 2,1 H 2 L 4,8 6,6"
         inkscape:connector-curvature="0" />
      <path
         id="path1282"
         transform="translate(329)"
         style="fill:none;stroke:#000080;stroke-width:0.52324188"
         d="M -6,1 H 6 V -1 L 5,-3 4,-4 2,-5 h -3 l -2,1 -2,2 -1,3 v 2 l 1,3 2,2 2,1 H 2 L 4,8 6,6"
         inkscape:connector-curvature="0" />
      <path
         id="path1284"
         transform="translate(342)"
         style="fill:none;stroke:#000080;stroke-width:0.52324188"
         d="M 0,4 -1,5 0,6 1,5 0,4"
         inkscape:connector-curvature="0" />
      <path
         id="path1286"
         transform="translate(355)"
         style="fill:none;stroke:#000080;stroke-width:0.52324188"
         d="M 6,-2 4,-4 2,-5 h -3 l -2,1 -2,2 -1,3 v 2 l 1,3 2,2 2,1 H 2 L 4,8 6,6"
         inkscape:connector-curvature="0" />
      <path
         id="path1288"
         transform="translate(373)"
         style="fill:none;stroke:#000080;stroke-width:0.52324188"
         d="m -1,-5 -2,1 -2,2 -1,3 v 2 l 1,3 2,2 2,1 H 2 L 4,8 6,6 7,3 V 1 L 6,-2 4,-4 2,-5 h -3"
         inkscape:connector-curvature="0" />
      <path
         id="path1290"
         transform="translate(398)"
         style="fill:none;stroke:#000080;stroke-width:0.52324188"
         d="M -11,-5 V 9 m 0,-10 3,-3 2,-1 h 3 l 2,1 1,3 V 9 M 0,-1 3,-4 5,-5 h 3 l 2,1 1,3 V 9"
         inkscape:connector-curvature="0" />
    </g>
    <text
       xml:space="preserve"
       style="font-style:normal;font-weight:normal;font-size:10.58333302px;line-height:1.25;font-family:sans-serif;letter-spacing:0px;word-spacing:0px;fill:#000000;fill-opacity:1;stroke:none;stroke-width:0.26458332"
       x="311.83038"
       y="99.318459"
       id="text50182"><tspan
         sodipodi:role="line"
         id="tspan50180"
         x="311.83038"
         y="99.318459"
         style="stroke-width:0.26458332">iPad Go Talk Now - 4 Buttons</tspan></text>
  </g>
</svg>
