<?xml version="1.0" encoding="UTF-8" standalone="no"?>
<!-- Created with Inkscape (http://www.inkscape.org/) -->

<svg
   xmlns:dc="http://purl.org/dc/elements/1.1/"
   xmlns:cc="http://creativecommons.org/ns#"
   xmlns:rdf="http://www.w3.org/1999/02/22-rdf-syntax-ns#"
   xmlns:svg="http://www.w3.org/2000/svg"
   xmlns="http://www.w3.org/2000/svg"
   xmlns:sodipodi="http://sodipodi.sourceforge.net/DTD/sodipodi-0.dtd"
   xmlns:inkscape="http://www.inkscape.org/namespaces/inkscape"
   width="11.692913in"
   height="8.2677164in"
   viewBox="0 0 297 210"
   version="1.1"
   id="svg8"
   inkscape:version="0.92.3 (2405546, 2018-03-11)"
   sodipodi:docname="iPadPro9-7_TouchChat_42.svg">
  <sodipodi:namedview
     id="base"
     pagecolor="#ffffff"
     bordercolor="#666666"
     borderopacity="1.0"
     inkscape:pageopacity="0.0"
     inkscape:pageshadow="2"
     inkscape:zoom="0.7"
     inkscape:cx="180.28468"
     inkscape:cy="332.63014"
     inkscape:document-units="mm"
     inkscape:current-layer="layer1"
     showgrid="false"
     units="in"
     inkscape:window-width="1920"
     inkscape:window-height="1017"
     inkscape:window-x="-8"
     inkscape:window-y="-8"
     inkscape:window-maximized="1" />
  <defs
     id="defs2">
    <marker
       style="overflow:visible"
       refY="0"
       refX="0"
       orient="auto"
       id="DistanceX">
      <path
         id="path12"
         style="stroke:#000000;stroke-width:0.5"
         d="M 3,-3 -3,3 M 0,-5 V 5"
         inkscape:connector-curvature="0" />
    </marker>
    <pattern
       y="0"
       x="0"
       width="8"
       patternUnits="userSpaceOnUse"
       id="Hatch"
       height="8">
      <path
         id="path15"
         stroke-width="0.25"
         stroke="#000000"
         linecap="square"
         d="M8 4 l-4,4" />
      <path
         id="path17"
         stroke-width="0.25"
         stroke="#000000"
         linecap="square"
         d="M6 2 l-4,4" />
      <path
         id="path19"
         stroke-width="0.25"
         stroke="#000000"
         linecap="square"
         d="M4 0 l-4,4" />
    </pattern>
    <symbol
       id="*MODEL_SPACE" />
    <symbol
       id="*PAPER_SPACE" />
  </defs>
  <metadata
     id="metadata5">
    <rdf:RDF>
      <cc:Work
         rdf:about="">
        <dc:format>image/svg+xml</dc:format>
        <dc:type
           rdf:resource="http://purl.org/dc/dcmitype/StillImage" />
        <dc:title />
      </cc:Work>
    </rdf:RDF>
  </metadata>
  <g
     inkscape:label="Layer 1"
     inkscape:groupmode="layer"
     id="layer1"
     transform="translate(0,-86.999992)">
    <g
       id="g116"
       inkscape:label="0"
       transform="matrix(-0.26458333,0,0,-0.26458333,29.678577,574.28857)"
       style="stroke:#ff0000">
      <path
         id="path26"
         style="fill:none;stroke:#ff0000"
         d="m -21.543307,1683.5197 a 52.913386,52.913386 0 0 1 -52.913386,52.9134 H -832.62992 a 52.913386,52.913386 0 0 1 -52.91339,-52.9134 v -161.8722 a 52.913386,52.913386 0 0 1 30.79885,-48.0705 33.90193,33.90193 0 0 0 0,-61.5981 52.913386,52.913386 0 0 1 -30.79885,-48.0705 v -162.8171 a 52.913386,52.913386 0 0 1 52.91339,-52.9133 h 758.173227 a 52.913386,52.913386 0 0 1 52.913386,52.9133 v 162.8171 a 52.913386,52.913386 0 0 1 -30.798844,48.0705 33.90193,33.90193 0 0 0 0,61.5981 52.913386,52.913386 0 0 1 30.798844,48.0705 z"
         inkscape:connector-curvature="0" />
      <path
         id="path28"
         style="fill:none;stroke:#ff0000"
         d="m -538.65827,1528.8378 a 7.559055,7.559055 0 0 1 -7.55905,7.5591 h -34.01575 a 7.559055,7.559055 0 0 1 -7.55906,-7.5591 v -34.0158 a 7.559055,7.559055 0 0 1 7.55906,-7.559 h 34.01575 a 7.559055,7.559055 0 0 1 7.55905,7.559 z"
         inkscape:connector-curvature="0" />
      <path
         id="path30"
         style="fill:none;stroke:#ff0000"
         d="m -648.34016,1528.8378 a 7.559055,7.559055 0 0 1 -7.55905,7.5591 h -34.01575 a 7.559055,7.559055 0 0 1 -7.55906,-7.5591 v -34.0158 a 7.559055,7.559055 0 0 1 7.55906,-7.559 h 34.01575 a 7.559055,7.559055 0 0 1 7.55905,7.559 z"
         inkscape:connector-curvature="0" />
      <path
         id="path32"
         style="fill:none;stroke:#ff0000"
         d="m -758.02205,1528.8378 a 7.559055,7.559055 0 0 1 -7.55905,7.5591 h -34.01575 a 7.559055,7.559055 0 0 1 -7.55906,-7.5591 v -34.0158 a 7.559055,7.559055 0 0 1 7.55906,-7.559 h 34.01575 a 7.559055,7.559055 0 0 1 7.55905,7.559 z"
         inkscape:connector-curvature="0" />
      <path
         id="path34"
         style="fill:none;stroke:#ff0000"
         d="m -319.29449,1609.1528 a 7.559055,7.559055 0 0 1 -7.55905,7.559 h -34.01575 a 7.559055,7.559055 0 0 1 -7.55906,-7.559 v -34.0158 a 7.559055,7.559055 0 0 1 7.55906,-7.559 h 34.01575 a 7.559055,7.559055 0 0 1 7.55905,7.559 z"
         inkscape:connector-curvature="0" />
      <path
         id="path36"
         style="fill:none;stroke:#ff0000"
         d="m -209.6126,1609.1528 a 7.559055,7.559055 0 0 1 -7.55905,7.559 h -34.01575 a 7.559055,7.559055 0 0 1 -7.55906,-7.559 v -34.0158 a 7.559055,7.559055 0 0 1 7.55906,-7.559 h 34.01575 a 7.559055,7.559055 0 0 1 7.55905,7.559 z"
         inkscape:connector-curvature="0" />
      <path
         id="path38"
         style="fill:none;stroke:#ff0000"
         d="m -107.48976,1567.578 a 7.559055,7.559055 0 0 1 7.559051,7.559 v 34.0158 a 7.559055,7.559055 0 0 1 -7.559051,7.559 h -34.01575 a 7.559055,7.559055 0 0 1 -7.55906,-7.559 v -34.0158 a 7.559055,7.559055 0 0 1 7.55906,-7.559 z"
         inkscape:connector-curvature="0" />
      <path
         id="path40"
         style="fill:none;stroke:#ff0000"
         d="m -99.930709,1368.2079 a 7.559055,7.559055 0 0 1 -7.559051,7.559 h -34.01575 a 7.559055,7.559055 0 0 1 -7.55906,-7.559 v -34.0158 a 7.559055,7.559055 0 0 1 7.55906,-7.559 h 34.01575 a 7.559055,7.559055 0 0 1 7.559051,7.559 z"
         inkscape:connector-curvature="0" />
      <path
         id="path42"
         style="fill:none;stroke:#ff0000"
         d="m -428.97638,1368.2079 a 7.559055,7.559055 0 0 1 -7.55905,7.559 h -34.01575 a 7.559055,7.559055 0 0 1 -7.55906,-7.559 v -34.0158 a 7.559055,7.559055 0 0 1 7.55906,-7.559 h 34.01575 a 7.559055,7.559055 0 0 1 7.55905,7.559 z"
         inkscape:connector-curvature="0" />
      <path
         id="path44"
         style="fill:none;stroke:#ff0000"
         d="m -428.97638,1609.1528 a 7.559055,7.559055 0 0 1 -7.55905,7.559 h -34.01575 a 7.559055,7.559055 0 0 1 -7.55906,-7.559 v -34.0158 a 7.559055,7.559055 0 0 1 7.55906,-7.559 h 34.01575 a 7.559055,7.559055 0 0 1 7.55905,7.559 z"
         inkscape:connector-curvature="0" />
      <path
         id="path46"
         style="fill:none;stroke:#ff0000"
         d="m -538.65827,1609.1528 a 7.559055,7.559055 0 0 1 -7.55905,7.559 h -34.01575 a 7.559055,7.559055 0 0 1 -7.55906,-7.559 v -34.0158 a 7.559055,7.559055 0 0 1 7.55906,-7.559 h 34.01575 a 7.559055,7.559055 0 0 1 7.55905,7.559 z"
         inkscape:connector-curvature="0" />
      <path
         id="path48"
         style="fill:none;stroke:#ff0000"
         d="m -648.34016,1609.1528 a 7.559055,7.559055 0 0 1 -7.55905,7.559 h -34.01575 a 7.559055,7.559055 0 0 1 -7.55906,-7.559 v -34.0158 a 7.559055,7.559055 0 0 1 7.55906,-7.559 h 34.01575 a 7.559055,7.559055 0 0 1 7.55905,7.559 z"
         inkscape:connector-curvature="0" />
      <path
         id="path50"
         style="fill:none;stroke:#ff0000"
         d="m -758.02205,1609.1528 a 7.559055,7.559055 0 0 1 -7.55905,7.559 h -34.01575 a 7.559055,7.559055 0 0 1 -7.55906,-7.559 v -34.0158 a 7.559055,7.559055 0 0 1 7.55906,-7.559 h 34.01575 a 7.559055,7.559055 0 0 1 7.55905,7.559 z"
         inkscape:connector-curvature="0" />
      <path
         id="path52"
         style="fill:none;stroke:#ff0000"
         d="m -99.930709,1528.8378 a 7.559055,7.559055 0 0 1 -7.559051,7.5591 h -34.01575 a 7.559055,7.559055 0 0 1 -7.55906,-7.5591 v -34.0158 a 7.559055,7.559055 0 0 1 7.55906,-7.559 h 34.01575 a 7.559055,7.559055 0 0 1 7.559051,7.559 z"
         inkscape:connector-curvature="0" />
      <path
         id="path54"
         style="fill:none;stroke:#ff0000"
         d="m -209.6126,1528.8378 a 7.559055,7.559055 0 0 1 -7.55905,7.5591 h -34.01575 a 7.559055,7.559055 0 0 1 -7.55906,-7.5591 v -34.0158 a 7.559055,7.559055 0 0 1 7.55906,-7.559 h 34.01575 a 7.559055,7.559055 0 0 1 7.55905,7.559 z"
         inkscape:connector-curvature="0" />
      <path
         id="path56"
         style="fill:none;stroke:#ff0000"
         d="m -319.29449,1528.8378 a 7.559055,7.559055 0 0 1 -7.55905,7.5591 h -34.01575 a 7.559055,7.559055 0 0 1 -7.55906,-7.5591 v -34.0158 a 7.559055,7.559055 0 0 1 7.55906,-7.559 h 34.01575 a 7.559055,7.559055 0 0 1 7.55905,7.559 z"
         inkscape:connector-curvature="0" />
      <path
         id="path58"
         style="fill:none;stroke:#ff0000"
         d="m -428.97638,1528.8378 a 7.559055,7.559055 0 0 1 -7.55905,7.5591 h -34.01575 a 7.559055,7.559055 0 0 1 -7.55906,-7.5591 v -34.0158 a 7.559055,7.559055 0 0 1 7.55906,-7.559 h 34.01575 a 7.559055,7.559055 0 0 1 7.55905,7.559 z"
         inkscape:connector-curvature="0" />
      <path
         id="path60"
         style="fill:none;stroke:#ff0000"
         d="m -319.29449,1368.2079 a 7.559055,7.559055 0 0 1 -7.55905,7.559 h -34.01575 a 7.559055,7.559055 0 0 1 -7.55906,-7.559 v -34.0158 a 7.559055,7.559055 0 0 1 7.55906,-7.559 h 34.01575 a 7.559055,7.559055 0 0 1 7.55905,7.559 z"
         inkscape:connector-curvature="0" />
      <path
         id="path62"
         style="fill:none;stroke:#ff0000"
         d="m -209.6126,1368.2079 a 7.559055,7.559055 0 0 1 -7.55905,7.559 h -34.01575 a 7.559055,7.559055 0 0 1 -7.55906,-7.559 v -34.0158 a 7.559055,7.559055 0 0 1 7.55906,-7.559 h 34.01575 a 7.559055,7.559055 0 0 1 7.55905,7.559 z"
         inkscape:connector-curvature="0" />
      <path
         id="path64"
         style="fill:none;stroke:#ff0000"
         d="m -209.6126,1287.8929 a 7.559055,7.559055 0 0 1 -7.55905,7.5591 h -34.01575 a 7.559055,7.559055 0 0 1 -7.55906,-7.5591 v -34.0157 a 7.559055,7.559055 0 0 1 7.55906,-7.5591 h 34.01575 a 7.559055,7.559055 0 0 1 7.55905,7.5591 z"
         inkscape:connector-curvature="0" />
      <path
         id="path66"
         style="fill:none;stroke:#ff0000"
         d="m -538.65827,1368.2079 a 7.559055,7.559055 0 0 1 -7.55905,7.559 h -34.01575 a 7.559055,7.559055 0 0 1 -7.55906,-7.559 v -34.0158 a 7.559055,7.559055 0 0 1 7.55906,-7.559 h 34.01575 a 7.559055,7.559055 0 0 1 7.55905,7.559 z"
         inkscape:connector-curvature="0" />
      <path
         id="path68"
         style="fill:none;stroke:#ff0000"
         d="m -648.34016,1368.2079 a 7.559055,7.559055 0 0 1 -7.55905,7.559 h -34.01575 a 7.559055,7.559055 0 0 1 -7.55906,-7.559 v -34.0158 a 7.559055,7.559055 0 0 1 7.55906,-7.559 h 34.01575 a 7.559055,7.559055 0 0 1 7.55905,7.559 z"
         inkscape:connector-curvature="0" />
      <path
         id="path70"
         style="fill:none;stroke:#ff0000"
         d="m -758.02205,1368.2079 a 7.559055,7.559055 0 0 1 -7.55905,7.559 h -34.01575 a 7.559055,7.559055 0 0 1 -7.55906,-7.559 v -34.0158 a 7.559055,7.559055 0 0 1 7.55906,-7.559 h 34.01575 a 7.559055,7.559055 0 0 1 7.55905,7.559 z"
         inkscape:connector-curvature="0" />
      <path
         id="path72"
         style="fill:none;stroke:#ff0000"
         d="m -99.930709,1287.8929 a 7.559055,7.559055 0 0 1 -7.559051,7.5591 h -34.01575 a 7.559055,7.559055 0 0 1 -7.55906,-7.5591 v -34.0157 a 7.559055,7.559055 0 0 1 7.55906,-7.5591 h 34.01575 a 7.559055,7.559055 0 0 1 7.559051,7.5591 z"
         inkscape:connector-curvature="0" />
      <path
         id="path74"
         style="fill:none;stroke:#ff0000"
         d="m -428.97638,1287.8929 a 7.559055,7.559055 0 0 1 -7.55905,7.5591 h -34.01575 a 7.559055,7.559055 0 0 1 -7.55906,-7.5591 v -34.0157 a 7.559055,7.559055 0 0 1 7.55906,-7.5591 h 34.01575 a 7.559055,7.559055 0 0 1 7.55905,7.5591 z"
         inkscape:connector-curvature="0" />
      <path
         id="path76"
         style="fill:none;stroke:#ff0000"
         d="m -319.29449,1287.8929 a 7.559055,7.559055 0 0 1 -7.55905,7.5591 h -34.01575 a 7.559055,7.559055 0 0 1 -7.55906,-7.5591 v -34.0157 a 7.559055,7.559055 0 0 1 7.55906,-7.5591 h 34.01575 a 7.559055,7.559055 0 0 1 7.55905,7.5591 z"
         inkscape:connector-curvature="0" />
      <path
         id="path78"
         style="fill:none;stroke:#ff0000"
         d="m -815.09173,1722.6171 a 7.559055,7.559055 0 0 1 -7.55905,-7.5591 v -65.5736 a 7.559055,7.559055 0 0 1 7.55905,-7.5591 h 49.03214 a 7.559055,7.559055 0 0 1 7.55905,7.5591 v 13.0542 a 7.559055,7.559055 0 0 0 7.55906,7.559 h 284.16983 a 7.559055,7.559055 0 0 1 7.55905,7.5591 v 37.4013 a 7.559055,7.559055 0 0 1 -7.55905,7.5591 z"
         inkscape:connector-curvature="0" />
      <path
         id="path80"
         style="fill:none;stroke:#ff0000"
         d="m -538.65827,1287.8929 a 7.559055,7.559055 0 0 1 -7.55905,7.5591 h -34.01575 a 7.559055,7.559055 0 0 1 -7.55906,-7.5591 v -34.0157 a 7.559055,7.559055 0 0 1 7.55906,-7.5591 h 34.01575 a 7.559055,7.559055 0 0 1 7.55905,7.5591 z"
         inkscape:connector-curvature="0" />
      <path
         id="path82"
         style="fill:none;stroke:#ff0000"
         d="m -648.34016,1287.8929 a 7.559055,7.559055 0 0 1 -7.55905,7.5591 h -34.01575 a 7.559055,7.559055 0 0 1 -7.55906,-7.5591 v -34.0157 a 7.559055,7.559055 0 0 1 7.55906,-7.5591 h 34.01575 a 7.559055,7.559055 0 0 1 7.55905,7.5591 z"
         inkscape:connector-curvature="0" />
      <path
         id="path84"
         style="fill:none;stroke:#ff0000"
         d="m -758.02205,1287.8929 a 7.559055,7.559055 0 0 1 -7.55905,7.5591 h -34.01575 a 7.559055,7.559055 0 0 1 -7.55906,-7.5591 v -34.0157 a 7.559055,7.559055 0 0 1 7.55906,-7.5591 h 34.01575 a 7.559055,7.559055 0 0 1 7.55905,7.5591 z"
         inkscape:connector-curvature="0" />
      <path
         id="path86"
         style="fill:none;stroke:#ff0000"
         d="m -428.97638,1207.578 a 7.559055,7.559055 0 0 1 -7.55905,7.559 h -34.01575 a 7.559055,7.559055 0 0 1 -7.55906,-7.559 v -34.0158 a 7.559055,7.559055 0 0 1 7.55906,-7.559 h 34.01575 a 7.559055,7.559055 0 0 1 7.55905,7.559 z"
         inkscape:connector-curvature="0" />
      <path
         id="path88"
         style="fill:none;stroke:#ff0000"
         d="m -99.930709,1207.578 a 7.559055,7.559055 0 0 1 -7.559051,7.559 h -34.01575 a 7.559055,7.559055 0 0 1 -7.55906,-7.559 v -34.0158 a 7.559055,7.559055 0 0 1 7.55906,-7.559 h 34.01575 a 7.559055,7.559055 0 0 1 7.559051,7.559 z"
         inkscape:connector-curvature="0" />
      <path
         id="path90"
         style="fill:none;stroke:#ff0000"
         d="m -648.34016,1207.578 a 7.559055,7.559055 0 0 1 -7.55905,7.559 h -34.01575 a 7.559055,7.559055 0 0 1 -7.55906,-7.559 v -34.0158 a 7.559055,7.559055 0 0 1 7.55906,-7.559 h 34.01575 a 7.559055,7.559055 0 0 1 7.55905,7.559 z"
         inkscape:connector-curvature="0" />
      <path
         id="path92"
         style="fill:none;stroke:#ff0000"
         d="m -758.02205,1207.578 a 7.559055,7.559055 0 0 1 -7.55905,7.559 h -34.01575 a 7.559055,7.559055 0 0 1 -7.55906,-7.559 v -34.0158 a 7.559055,7.559055 0 0 1 7.55906,-7.559 h 34.01575 a 7.559055,7.559055 0 0 1 7.55905,7.559 z"
         inkscape:connector-curvature="0" />
      <path
         id="path94"
         style="fill:none;stroke:#ff0000"
         d="m -319.29449,1207.578 a 7.559055,7.559055 0 0 1 -7.55905,7.559 h -34.01575 a 7.559055,7.559055 0 0 1 -7.55906,-7.559 v -34.0158 a 7.559055,7.559055 0 0 1 7.55906,-7.559 h 34.01575 a 7.559055,7.559055 0 0 1 7.55905,7.559 z"
         inkscape:connector-curvature="0" />
      <path
         id="path96"
         style="fill:none;stroke:#ff0000"
         d="m -209.6126,1207.578 a 7.559055,7.559055 0 0 1 -7.55905,7.559 h -34.01575 a 7.559055,7.559055 0 0 1 -7.55906,-7.559 v -34.0158 a 7.559055,7.559055 0 0 1 7.55906,-7.559 h 34.01575 a 7.559055,7.559055 0 0 1 7.55905,7.559 z"
         inkscape:connector-curvature="0" />
      <path
         id="path98"
         style="fill:none;stroke:#ff0000"
         d="m -538.65827,1207.578 a 7.559055,7.559055 0 0 1 -7.55905,7.559 h -34.01575 a 7.559055,7.559055 0 0 1 -7.55906,-7.559 v -34.0158 a 7.559055,7.559055 0 0 1 7.55906,-7.559 h 34.01575 a 7.559055,7.559055 0 0 1 7.55905,7.559 z"
         inkscape:connector-curvature="0" />
      <path
         id="path100"
         style="fill:none;stroke:#ff0000"
         d="m -173.29611,1670.0976 h -267.01885 a 7.559055,7.559055 0 0 0 -7.55906,7.5591 v 37.4013 a 7.559055,7.559055 0 0 0 7.55906,7.5591 h 353.62089 a 7.559055,7.559055 0 0 0 7.559055,-7.5591 v -68.2911 a 7.559055,7.559055 0 0 0 -7.559055,-7.5591 H -158.178 a 7.559055,7.559055 0 0 0 -7.55905,7.5591 v 15.7717 a 7.559055,7.559055 0 0 1 -7.55906,7.559 z"
         inkscape:connector-curvature="0" />
      <path
         id="path102"
         style="fill:none;stroke:#ff0000"
         d="m -758.02205,1448.5228 a 7.559055,7.559055 0 0 1 -7.55905,7.5591 h -34.01575 a 7.559055,7.559055 0 0 1 -7.55906,-7.5591 v -34.0157 a 7.559055,7.559055 0 0 1 7.55906,-7.5591 h 34.01575 a 7.559055,7.559055 0 0 1 7.55905,7.5591 z"
         inkscape:connector-curvature="0" />
      <path
         id="path104"
         style="fill:none;stroke:#ff0000"
         d="m -538.65827,1448.5228 a 7.559055,7.559055 0 0 1 -7.55905,7.5591 h -34.01575 a 7.559055,7.559055 0 0 1 -7.55906,-7.5591 v -34.0157 a 7.559055,7.559055 0 0 1 7.55906,-7.5591 h 34.01575 a 7.559055,7.559055 0 0 1 7.55905,7.5591 z"
         inkscape:connector-curvature="0" />
      <path
         id="path106"
         style="fill:none;stroke:#ff0000"
         d="m -648.34016,1448.5228 a 7.559055,7.559055 0 0 1 -7.55905,7.5591 h -34.01575 a 7.559055,7.559055 0 0 1 -7.55906,-7.5591 v -34.0157 a 7.559055,7.559055 0 0 1 7.55906,-7.5591 h 34.01575 a 7.559055,7.559055 0 0 1 7.55905,7.5591 z"
         inkscape:connector-curvature="0" />
      <path
         id="path108"
         style="fill:none;stroke:#ff0000"
         d="m -428.97638,1448.5228 a 7.559055,7.559055 0 0 1 -7.55905,7.5591 h -34.01575 a 7.559055,7.559055 0 0 1 -7.55906,-7.5591 v -34.0157 a 7.559055,7.559055 0 0 1 7.55906,-7.5591 h 34.01575 a 7.559055,7.559055 0 0 1 7.55905,7.5591 z"
         inkscape:connector-curvature="0" />
      <path
         id="path110"
         style="fill:none;stroke:#ff0000"
         d="m -99.930709,1448.5228 a 7.559055,7.559055 0 0 1 -7.559051,7.5591 h -34.01575 a 7.559055,7.559055 0 0 1 -7.55906,-7.5591 v -34.0157 a 7.559055,7.559055 0 0 1 7.55906,-7.5591 h 34.01575 a 7.559055,7.559055 0 0 1 7.559051,7.5591 z"
         inkscape:connector-curvature="0" />
      <path
         id="path112"
         style="fill:none;stroke:#ff0000"
         d="m -319.29449,1448.5228 a 7.559055,7.559055 0 0 1 -7.55905,7.5591 h -34.01575 a 7.559055,7.559055 0 0 1 -7.55906,-7.5591 v -34.0157 a 7.559055,7.559055 0 0 1 7.55906,-7.5591 h 34.01575 a 7.559055,7.559055 0 0 1 7.55905,7.5591 z"
         inkscape:connector-curvature="0" />
      <path
         id="path114"
         style="fill:none;stroke:#ff0000"
         d="m -209.6126,1448.5228 a 7.559055,7.559055 0 0 1 -7.55905,7.5591 h -34.01575 a 7.559055,7.559055 0 0 1 -7.55906,-7.5591 v -34.0157 a 7.559055,7.559055 0 0 1 7.55906,-7.5591 h 34.01575 a 7.559055,7.559055 0 0 1 7.55905,7.5591 z"
         inkscape:connector-curvature="0" />
    </g>
    <g
       id="g431"
       transform="matrix(0,0.09931438,-0.09931438,0,39.057137,216.68349)"
       inkscape:label="Hershey Text"
       style="stroke:#0000ff">
      <path
         id="path387"
         transform="translate(15)"
         style="fill:none;stroke:#0000ff"
         d="M -11,-5 V 9 m 0,-10 3,-3 2,-1 h 3 l 2,1 1,3 V 9 M 0,-1 3,-4 5,-5 h 3 l 2,1 1,3 V 9"
         inkscape:connector-curvature="0" />
      <path
         id="path389"
         transform="translate(39)"
         style="fill:none;stroke:#0000ff"
         d="M 6,-5 V 9 M 6,-2 4,-4 2,-5 h -3 l -2,1 -2,2 -1,3 v 2 l 1,3 2,2 2,1 H 2 L 4,8 6,6"
         inkscape:connector-curvature="0" />
      <path
         id="path391"
         transform="translate(58)"
         style="fill:none;stroke:#0000ff"
         d="M -5,-12 V 9 M 5,-5 -5,5 m 4,-4 7,8"
         inkscape:connector-curvature="0" />
      <path
         id="path393"
         transform="translate(75)"
         style="fill:none;stroke:#0000ff"
         d="M -6,1 H 6 V -1 L 5,-3 4,-4 2,-5 h -3 l -2,1 -2,2 -1,3 v 2 l 1,3 2,2 2,1 H 2 L 4,8 6,6"
         inkscape:connector-curvature="0" />
      <path
         id="path395"
         transform="translate(91)"
         style="fill:none;stroke:#0000ff"
         d="M -3,-5 V 9 m 0,-8 1,-3 2,-2 2,-1 h 3"
         inkscape:connector-curvature="0" />
      <path
         id="path397"
         transform="translate(105)"
         style="fill:none;stroke:#0000ff"
         d="M 6,-2 5,-4 2,-5 h -3 l -3,1 -1,2 1,2 2,1 5,1 2,1 1,2 V 6 L 5,8 2,9 H -1 L -4,8 -5,6"
         inkscape:connector-curvature="0" />
      <path
         id="path399"
         transform="translate(129)"
         style="fill:none;stroke:#0000ff"
         d="M -11,-5 V 9 m 0,-10 3,-3 2,-1 h 3 l 2,1 1,3 V 9 M 0,-1 3,-4 5,-5 h 3 l 2,1 1,3 V 9"
         inkscape:connector-curvature="0" />
      <path
         id="path401"
         transform="translate(153)"
         style="fill:none;stroke:#0000ff"
         d="M 6,-5 V 9 M 6,-2 4,-4 2,-5 h -3 l -2,1 -2,2 -1,3 v 2 l 1,3 2,2 2,1 H 2 L 4,8 6,6"
         inkscape:connector-curvature="0" />
      <path
         id="path403"
         transform="translate(172)"
         style="fill:none;stroke:#0000ff"
         d="M -5,-12 V 9 M 5,-5 -5,5 m 4,-4 7,8"
         inkscape:connector-curvature="0" />
      <path
         id="path405"
         transform="translate(184)"
         style="fill:none;stroke:#0000ff"
         d="m -1,-12 1,1 1,-1 -1,-1 -1,1 m 1,7 V 9"
         inkscape:connector-curvature="0" />
      <path
         id="path407"
         transform="translate(197)"
         style="fill:none;stroke:#0000ff"
         d="M -5,-5 V 9 m 0,-10 3,-3 2,-1 h 3 l 2,1 1,3 V 9"
         inkscape:connector-curvature="0" />
      <path
         id="path409"
         transform="translate(216)"
         style="fill:none;stroke:#0000ff"
         d="M 6,-5 V 11 L 5,14 4,15 2,16 H -1 L -3,15 M 6,-2 4,-4 2,-5 h -3 l -2,1 -2,2 -1,3 v 2 l 1,3 2,2 2,1 H 2 L 4,8 6,6"
         inkscape:connector-curvature="0" />
      <path
         id="path411"
         transform="translate(235)"
         style="fill:none;stroke:#0000ff"
         d="M 6,-2 4,-4 2,-5 h -3 l -2,1 -2,2 -1,3 v 2 l 1,3 2,2 2,1 H 2 L 4,8 6,6"
         inkscape:connector-curvature="0" />
      <path
         id="path413"
         transform="translate(253)"
         style="fill:none;stroke:#0000ff"
         d="M -5,-12 V 9 m 0,-10 3,-3 2,-1 h 3 l 2,1 1,3 V 9"
         inkscape:connector-curvature="0" />
      <path
         id="path415"
         transform="translate(272)"
         style="fill:none;stroke:#0000ff"
         d="M 6,-5 V 9 M 6,-2 4,-4 2,-5 h -3 l -2,1 -2,2 -1,3 v 2 l 1,3 2,2 2,1 H 2 L 4,8 6,6"
         inkscape:connector-curvature="0" />
      <path
         id="path417"
         transform="translate(291)"
         style="fill:none;stroke:#0000ff"
         d="M -5,-5 V 9 m 0,-10 3,-3 2,-1 h 3 l 2,1 1,3 V 9"
         inkscape:connector-curvature="0" />
      <path
         id="path419"
         transform="translate(310)"
         style="fill:none;stroke:#0000ff"
         d="M 6,-5 V 11 L 5,14 4,15 2,16 H -1 L -3,15 M 6,-2 4,-4 2,-5 h -3 l -2,1 -2,2 -1,3 v 2 l 1,3 2,2 2,1 H 2 L 4,8 6,6"
         inkscape:connector-curvature="0" />
      <path
         id="path421"
         transform="translate(329)"
         style="fill:none;stroke:#0000ff"
         d="M -6,1 H 6 V -1 L 5,-3 4,-4 2,-5 h -3 l -2,1 -2,2 -1,3 v 2 l 1,3 2,2 2,1 H 2 L 4,8 6,6"
         inkscape:connector-curvature="0" />
      <path
         id="path423"
         transform="translate(342)"
         style="fill:none;stroke:#0000ff"
         d="M 0,4 -1,5 0,6 1,5 0,4"
         inkscape:connector-curvature="0" />
      <path
         id="path425"
         transform="translate(355)"
         style="fill:none;stroke:#0000ff"
         d="M 6,-2 4,-4 2,-5 h -3 l -2,1 -2,2 -1,3 v 2 l 1,3 2,2 2,1 H 2 L 4,8 6,6"
         inkscape:connector-curvature="0" />
      <path
         id="path427"
         transform="translate(373)"
         style="fill:none;stroke:#0000ff"
         d="m -1,-5 -2,1 -2,2 -1,3 v 2 l 1,3 2,2 2,1 H 2 L 4,8 6,6 7,3 V 1 L 6,-2 4,-4 2,-5 h -3"
         inkscape:connector-curvature="0" />
      <path
         id="path429"
         transform="translate(398)"
         style="fill:none;stroke:#0000ff"
         d="M -11,-5 V 9 m 0,-10 3,-3 2,-1 h 3 l 2,1 1,3 V 9 M 0,-1 3,-4 5,-5 h 3 l 2,1 1,3 V 9"
         inkscape:connector-curvature="0" />
    </g>
  </g>
</svg>
