<?xml version="1.0" encoding="UTF-8" standalone="no"?>
<!-- Created with Inkscape (http://www.inkscape.org/) -->

<svg
   xmlns:dc="http://purl.org/dc/elements/1.1/"
   xmlns:cc="http://creativecommons.org/ns#"
   xmlns:rdf="http://www.w3.org/1999/02/22-rdf-syntax-ns#"
   xmlns:svg="http://www.w3.org/2000/svg"
   xmlns="http://www.w3.org/2000/svg"
   xmlns:sodipodi="http://sodipodi.sourceforge.net/DTD/sodipodi-0.dtd"
   xmlns:inkscape="http://www.inkscape.org/namespaces/inkscape"
   width="297mm"
   height="210mm"
   viewBox="0 0 297 210"
   version="1.1"
   id="svg4787"
   inkscape:version="0.92.3 (2405546, 2018-03-11)"
   sodipodi:docname="iPad_TouchChat_20.svg">
  <defs
     id="defs4781" />
  <sodipodi:namedview
     id="base"
     pagecolor="#ffffff"
     bordercolor="#666666"
     borderopacity="1.0"
     inkscape:pageopacity="0.0"
     inkscape:pageshadow="2"
     inkscape:zoom="1.979899"
     inkscape:cx="597.42135"
     inkscape:cy="449.4186"
     inkscape:document-units="mm"
     inkscape:current-layer="layer1"
     showgrid="false"
     inkscape:window-width="1920"
     inkscape:window-height="1017"
     inkscape:window-x="-8"
     inkscape:window-y="-8"
     inkscape:window-maximized="1"
     inkscape:snap-midpoints="true"
     showguides="true"
     inkscape:guide-bbox="true" />
  <metadata
     id="metadata4784">
    <rdf:RDF>
      <cc:Work
         rdf:about="">
        <dc:format>image/svg+xml</dc:format>
        <dc:type
           rdf:resource="http://purl.org/dc/dcmitype/StillImage" />
        <dc:title />
      </cc:Work>
    </rdf:RDF>
  </metadata>
  <g
     inkscape:label="Layer 1"
     inkscape:groupmode="layer"
     id="layer1"
     transform="translate(0,-87)">
    <path
       style="fill:none;stroke:#ff0000;stroke-width:0.05715;stroke-linecap:butt;stroke-linejoin:miter;stroke-dasharray:none"
       d="m 69.579772,131.81521 c -1.941584,0 -2.911967,0.97089 -2.911967,2.91248 v 23.96106 c 0,0.61652 0.151143,0.6896 0.500084,0.99109 2.904458,2.84333 5.067329,17.07859 5.068567,33.95278 -0.0021,16.83228 -2.15547,31.03499 -5.049496,33.92101 -0.205356,0.18623 -0.519155,0.74957 -0.519155,1.0261 v 21.67165 c 0,1.94157 0.970383,2.91249 2.911967,2.91249 H 232.91915 c 1.94158,0 2.91249,-0.97092 2.91249,-2.91249 v -21.50043 c 0.0233,-0.73991 -0.47486,-1.14058 -0.5942,-1.27458 -2.85634,-3.05355 -4.97262,-17.15626 -4.97497,-33.84375 0.001,-16.88866 2.16785,-31.13361 5.07603,-33.95979 0.34993,-0.35865 0.49314,-0.45663 0.49314,-1.04255 v -23.90259 c 0,-1.94159 -0.97091,-2.91248 -2.91249,-2.91248 z"
       id="path9286"
       inkscape:connector-curvature="0"
       sodipodi:nodetypes="sscccccsssscccccsss" />
    <path
       d="m 78.669084,140.95933 v 4.953 q 0,2.4765 2.476496,2.4765 h 69.14886 q 2.4765,0 2.4765,-2.4765 v -4.953 q 0,-2.4765 -2.4765,-2.4765 H 81.14558 q -2.476496,0 -2.476496,2.4765 z"
       style="fill:none;stroke:#ff0000;stroke-width:0.05715;stroke-linecap:butt;stroke-linejoin:miter;stroke-dasharray:none"
       id="path9290"
       inkscape:connector-curvature="0" />
    <path
       d="m 210.87608,140.95933 v 4.953 q 0,2.4765 2.4765,2.4765 h 7.8105 q 2.4765,0 2.4765,-2.4765 v -4.953 q 0,-2.4765 -2.4765,-2.4765 h -7.8105 q -2.4765,0 -2.4765,2.4765 z"
       style="fill:none;stroke:#ff0000;stroke-width:0.05715;stroke-linecap:butt;stroke-linejoin:miter;stroke-dasharray:none"
       id="path9292"
       inkscape:connector-curvature="0" />
    <path
       d="m 77.716584,247.44883 v -22.86 h 28.574996 v 22.86 z"
       style="fill:none;stroke:#0000ff;stroke-width:0.05715;stroke-linecap:butt;stroke-linejoin:miter;stroke-dasharray:none"
       id="path9294"
       inkscape:connector-curvature="0" />
    <path
       d="m 86.37907,232.29884 v 7.44001 q 0,1.905 1.905,1.905 h 7.44 q 1.905,0 1.905,-1.905 v -7.44001 q 0,-1.905 -1.905,-1.905 h -7.44 q -1.905,0 -1.905,1.905 z"
       style="fill:none;stroke:#ff0000;stroke-width:0.05715;stroke-linecap:butt;stroke-linejoin:miter;stroke-dasharray:none"
       id="path9296"
       inkscape:connector-curvature="0" />
    <path
       d="m 106.29158,247.44883 v -22.86 h 28.575 v 22.86 z"
       style="fill:none;stroke:#0000ff;stroke-width:0.05715;stroke-linecap:butt;stroke-linejoin:miter;stroke-dasharray:none"
       id="path9298"
       inkscape:connector-curvature="0" />
    <path
       d="m 114.95407,232.29884 v 7.44001 q 0,1.905 1.905,1.905 h 7.44 q 1.905,0 1.905,-1.905 v -7.44001 q 0,-1.905 -1.905,-1.905 h -7.44 q -1.905,0 -1.905,1.905 z"
       style="fill:none;stroke:#ff0000;stroke-width:0.05715;stroke-linecap:butt;stroke-linejoin:miter;stroke-dasharray:none"
       id="path9300"
       inkscape:connector-curvature="0" />
    <path
       d="m 134.86658,247.44883 v -22.86 h 28.575 v 22.86 z"
       style="fill:none;stroke:#0000ff;stroke-width:0.05715;stroke-linecap:butt;stroke-linejoin:miter;stroke-dasharray:none"
       id="path9302"
       inkscape:connector-curvature="0" />
    <path
       d="m 143.52907,232.29884 v 7.44001 q 0,1.905 1.905,1.905 h 7.44 q 1.905,0 1.905,-1.905 v -7.44001 q 0,-1.905 -1.905,-1.905 h -7.44 q -1.905,0 -1.905,1.905 z"
       style="fill:none;stroke:#ff0000;stroke-width:0.05715;stroke-linecap:butt;stroke-linejoin:miter;stroke-dasharray:none"
       id="path9304"
       inkscape:connector-curvature="0" />
    <path
       d="m 163.44158,247.44883 v -22.86 h 28.575 v 22.86 z"
       style="fill:none;stroke:#0000ff;stroke-width:0.05715;stroke-linecap:butt;stroke-linejoin:miter;stroke-dasharray:none"
       id="path9306"
       inkscape:connector-curvature="0" />
    <path
       d="m 172.10407,232.29884 v 7.44001 q 0,1.905 1.905,1.905 h 7.44 q 1.905,0 1.905,-1.905 v -7.44001 q 0,-1.905 -1.905,-1.905 h -7.44 q -1.905,0 -1.905,1.905 z"
       style="fill:none;stroke:#ff0000;stroke-width:0.05715;stroke-linecap:butt;stroke-linejoin:miter;stroke-dasharray:none"
       id="path9308"
       inkscape:connector-curvature="0" />
    <path
       d="m 192.01658,247.44883 v -22.86 h 28.575 v 22.86 z"
       style="fill:none;stroke:#0000ff;stroke-width:0.05715;stroke-linecap:butt;stroke-linejoin:miter;stroke-dasharray:none"
       id="path9310"
       inkscape:connector-curvature="0" />
    <path
       d="m 200.67907,232.29884 v 7.44001 q 0,1.905 1.905,1.905 h 7.44 q 1.905,0 1.905,-1.905 v -7.44001 q 0,-1.905 -1.905,-1.905 h -7.44 q -1.905,0 -1.905,1.905 z"
       style="fill:none;stroke:#ff0000;stroke-width:0.05715;stroke-linecap:butt;stroke-linejoin:miter;stroke-dasharray:none"
       id="path9312"
       inkscape:connector-curvature="0" />
    <path
       d="m 77.716584,224.58883 v -22.86 h 28.574996 v 22.86 z"
       style="fill:none;stroke:#0000ff;stroke-width:0.05715;stroke-linecap:butt;stroke-linejoin:miter;stroke-dasharray:none"
       id="path9314"
       inkscape:connector-curvature="0" />
    <path
       d="m 86.37907,209.43884 v 7.44001 q 0,1.905 1.905,1.905 h 7.44 q 1.905,0 1.905,-1.905 v -7.44001 q 0,-1.905 -1.905,-1.905 h -7.44 q -1.905,0 -1.905,1.905 z"
       style="fill:none;stroke:#ff0000;stroke-width:0.05715;stroke-linecap:butt;stroke-linejoin:miter;stroke-dasharray:none"
       id="path9316"
       inkscape:connector-curvature="0" />
    <path
       d="m 106.29158,224.58883 v -22.86 h 28.575 v 22.86 z"
       style="fill:none;stroke:#0000ff;stroke-width:0.05715;stroke-linecap:butt;stroke-linejoin:miter;stroke-dasharray:none"
       id="path9318"
       inkscape:connector-curvature="0" />
    <path
       d="m 114.95407,209.43884 v 7.44001 q 0,1.905 1.905,1.905 h 7.44 q 1.905,0 1.905,-1.905 v -7.44001 q 0,-1.905 -1.905,-1.905 h -7.44 q -1.905,0 -1.905,1.905 z"
       style="fill:none;stroke:#ff0000;stroke-width:0.05715;stroke-linecap:butt;stroke-linejoin:miter;stroke-dasharray:none"
       id="path9320"
       inkscape:connector-curvature="0" />
    <path
       d="m 134.86658,224.58883 v -22.86 h 28.575 v 22.86 z"
       style="fill:none;stroke:#0000ff;stroke-width:0.05715;stroke-linecap:butt;stroke-linejoin:miter;stroke-dasharray:none"
       id="path9322"
       inkscape:connector-curvature="0" />
    <path
       d="m 143.52907,209.43884 v 7.44001 q 0,1.905 1.905,1.905 h 7.44 q 1.905,0 1.905,-1.905 v -7.44001 q 0,-1.905 -1.905,-1.905 h -7.44 q -1.905,0 -1.905,1.905 z"
       style="fill:none;stroke:#ff0000;stroke-width:0.05715;stroke-linecap:butt;stroke-linejoin:miter;stroke-dasharray:none"
       id="path9324"
       inkscape:connector-curvature="0" />
    <path
       d="m 163.44158,224.58883 v -22.86 h 28.575 v 22.86 z"
       style="fill:none;stroke:#0000ff;stroke-width:0.05715;stroke-linecap:butt;stroke-linejoin:miter;stroke-dasharray:none"
       id="path9326"
       inkscape:connector-curvature="0" />
    <path
       d="m 172.10407,209.43884 v 7.44001 q 0,1.905 1.905,1.905 h 7.44 q 1.905,0 1.905,-1.905 v -7.44001 q 0,-1.905 -1.905,-1.905 h -7.44 q -1.905,0 -1.905,1.905 z"
       style="fill:none;stroke:#ff0000;stroke-width:0.05715;stroke-linecap:butt;stroke-linejoin:miter;stroke-dasharray:none"
       id="path9328"
       inkscape:connector-curvature="0" />
    <path
       d="m 192.01658,224.58883 v -22.86 h 28.575 v 22.86 z"
       style="fill:none;stroke:#0000ff;stroke-width:0.05715;stroke-linecap:butt;stroke-linejoin:miter;stroke-dasharray:none"
       id="path9330"
       inkscape:connector-curvature="0" />
    <path
       d="m 200.67907,209.43884 v 7.44001 q 0,1.905 1.905,1.905 h 7.44 q 1.905,0 1.905,-1.905 v -7.44001 q 0,-1.905 -1.905,-1.905 h -7.44 q -1.905,0 -1.905,1.905 z"
       style="fill:none;stroke:#ff0000;stroke-width:0.05715;stroke-linecap:butt;stroke-linejoin:miter;stroke-dasharray:none"
       id="path9332"
       inkscape:connector-curvature="0" />
    <path
       d="m 77.716584,201.72883 v -22.86 h 28.574996 v 22.86 z"
       style="fill:none;stroke:#0000ff;stroke-width:0.05715;stroke-linecap:butt;stroke-linejoin:miter;stroke-dasharray:none"
       id="path9334"
       inkscape:connector-curvature="0" />
    <path
       d="m 86.37907,186.57884 v 7.44001 q 0,1.905 1.905,1.905 h 7.44 q 1.905,0 1.905,-1.905 v -7.44001 q 0,-1.905 -1.905,-1.905 h -7.44 q -1.905,0 -1.905,1.905 z"
       style="fill:none;stroke:#ff0000;stroke-width:0.05715;stroke-linecap:butt;stroke-linejoin:miter;stroke-dasharray:none"
       id="path9336"
       inkscape:connector-curvature="0" />
    <path
       d="m 106.29158,201.72883 v -22.86 h 28.575 v 22.86 z"
       style="fill:none;stroke:#0000ff;stroke-width:0.05715;stroke-linecap:butt;stroke-linejoin:miter;stroke-dasharray:none"
       id="path9338"
       inkscape:connector-curvature="0" />
    <path
       d="m 114.95407,186.57884 v 7.44001 q 0,1.905 1.905,1.905 h 7.44 q 1.905,0 1.905,-1.905 v -7.44001 q 0,-1.905 -1.905,-1.905 h -7.44 q -1.905,0 -1.905,1.905 z"
       style="fill:none;stroke:#ff0000;stroke-width:0.05715;stroke-linecap:butt;stroke-linejoin:miter;stroke-dasharray:none"
       id="path9340"
       inkscape:connector-curvature="0" />
    <path
       d="m 134.86658,201.72883 v -22.86 h 28.575 v 22.86 z"
       style="fill:none;stroke:#0000ff;stroke-width:0.05715;stroke-linecap:butt;stroke-linejoin:miter;stroke-dasharray:none"
       id="path9342"
       inkscape:connector-curvature="0" />
    <path
       d="m 143.52907,186.57884 v 7.44001 q 0,1.905 1.905,1.905 h 7.44 q 1.905,0 1.905,-1.905 v -7.44001 q 0,-1.905 -1.905,-1.905 h -7.44 q -1.905,0 -1.905,1.905 z"
       style="fill:none;stroke:#ff0000;stroke-width:0.05715;stroke-linecap:butt;stroke-linejoin:miter;stroke-dasharray:none"
       id="path9344"
       inkscape:connector-curvature="0" />
    <path
       d="m 163.44158,201.72883 v -22.86 h 28.575 v 22.86 z"
       style="fill:none;stroke:#0000ff;stroke-width:0.05715;stroke-linecap:butt;stroke-linejoin:miter;stroke-dasharray:none"
       id="path9346"
       inkscape:connector-curvature="0" />
    <path
       d="m 172.10407,186.57884 v 7.44001 q 0,1.905 1.905,1.905 h 7.44 q 1.905,0 1.905,-1.905 v -7.44001 q 0,-1.905 -1.905,-1.905 h -7.44 q -1.905,0 -1.905,1.905 z"
       style="fill:none;stroke:#ff0000;stroke-width:0.05715;stroke-linecap:butt;stroke-linejoin:miter;stroke-dasharray:none"
       id="path9348"
       inkscape:connector-curvature="0" />
    <path
       d="m 192.01658,201.72883 v -22.86 h 28.575 v 22.86 z"
       style="fill:none;stroke:#0000ff;stroke-width:0.05715;stroke-linecap:butt;stroke-linejoin:miter;stroke-dasharray:none"
       id="path9350"
       inkscape:connector-curvature="0" />
    <path
       d="m 200.67907,186.57884 v 7.44001 q 0,1.905 1.905,1.905 h 7.44 q 1.905,0 1.905,-1.905 v -7.44001 q 0,-1.905 -1.905,-1.905 h -7.44 q -1.905,0 -1.905,1.905 z"
       style="fill:none;stroke:#ff0000;stroke-width:0.05715;stroke-linecap:butt;stroke-linejoin:miter;stroke-dasharray:none"
       id="path9352"
       inkscape:connector-curvature="0" />
    <path
       d="m 77.716584,178.86883 v -22.86 h 28.574996 v 22.86 z"
       style="fill:none;stroke:#0000ff;stroke-width:0.05715;stroke-linecap:butt;stroke-linejoin:miter;stroke-dasharray:none"
       id="path9354"
       inkscape:connector-curvature="0" />
    <path
       d="m 86.37907,163.71884 v 7.44001 q 0,1.905 1.905,1.905 h 7.44 q 1.905,0 1.905,-1.905 v -7.44001 q 0,-1.905 -1.905,-1.905 h -7.44 q -1.905,0 -1.905,1.905 z"
       style="fill:none;stroke:#ff0000;stroke-width:0.05715;stroke-linecap:butt;stroke-linejoin:miter;stroke-dasharray:none"
       id="path9356"
       inkscape:connector-curvature="0" />
    <path
       d="m 106.29158,178.86883 v -22.86 h 28.575 v 22.86 z"
       style="fill:none;stroke:#0000ff;stroke-width:0.05715;stroke-linecap:butt;stroke-linejoin:miter;stroke-dasharray:none"
       id="path9358"
       inkscape:connector-curvature="0" />
    <path
       d="m 114.95407,163.71884 v 7.44001 q 0,1.905 1.905,1.905 h 7.44 q 1.905,0 1.905,-1.905 v -7.44001 q 0,-1.905 -1.905,-1.905 h -7.44 q -1.905,0 -1.905,1.905 z"
       style="fill:none;stroke:#ff0000;stroke-width:0.05715;stroke-linecap:butt;stroke-linejoin:miter;stroke-dasharray:none"
       id="path9360"
       inkscape:connector-curvature="0" />
    <path
       d="m 134.86658,178.86883 v -22.86 h 28.575 v 22.86 z"
       style="fill:none;stroke:#0000ff;stroke-width:0.05715;stroke-linecap:butt;stroke-linejoin:miter;stroke-dasharray:none"
       id="path9362"
       inkscape:connector-curvature="0" />
    <path
       d="m 143.52907,163.71884 v 7.44001 q 0,1.905 1.905,1.905 h 7.44 q 1.905,0 1.905,-1.905 v -7.44001 q 0,-1.905 -1.905,-1.905 h -7.44 q -1.905,0 -1.905,1.905 z"
       style="fill:none;stroke:#ff0000;stroke-width:0.05715;stroke-linecap:butt;stroke-linejoin:miter;stroke-dasharray:none"
       id="path9364"
       inkscape:connector-curvature="0" />
    <path
       d="m 163.44158,178.86883 v -22.86 h 28.575 v 22.86 z"
       style="fill:none;stroke:#0000ff;stroke-width:0.05715;stroke-linecap:butt;stroke-linejoin:miter;stroke-dasharray:none"
       id="path9366"
       inkscape:connector-curvature="0" />
    <path
       d="m 172.10407,163.71884 v 7.44001 q 0,1.905 1.905,1.905 h 7.44 q 1.905,0 1.905,-1.905 v -7.44001 q 0,-1.905 -1.905,-1.905 h -7.44 q -1.905,0 -1.905,1.905 z"
       style="fill:none;stroke:#ff0000;stroke-width:0.05715;stroke-linecap:butt;stroke-linejoin:miter;stroke-dasharray:none"
       id="path9368"
       inkscape:connector-curvature="0" />
    <path
       d="m 192.01658,178.86883 v -22.86 h 28.575 v 22.86 z"
       style="fill:none;stroke:#0000ff;stroke-width:0.05715;stroke-linecap:butt;stroke-linejoin:miter;stroke-dasharray:none"
       id="path9370"
       inkscape:connector-curvature="0" />
    <path
       d="m 200.67907,163.71884 v 7.44001 q 0,1.905 1.905,1.905 h 7.44 q 1.905,0 1.905,-1.905 v -7.44001 q 0,-1.905 -1.905,-1.905 h -7.44 q -1.905,0 -1.905,1.905 z"
       style="fill:none;stroke:#ff0000;stroke-width:0.05715;stroke-linecap:butt;stroke-linejoin:miter;stroke-dasharray:none"
       id="path9372"
       inkscape:connector-curvature="0" />
  </g>
</svg>
